Coordinates
version=1
nRows=10
nColumns=63
inDegrees=yes

Units are S.I. units (second, meters, Newtons, ...)
If the header above contains a line with 'inDegrees', this indicates whether rotational values are in degrees (yes) or radians (no).

endheader
time	pelvis_tilt	pelvis_list	pelvis_rotation	pelvis_tx	pelvis_ty	pelvis_tz	hip_flexion_r	hip_adduction_r	hip_rotation_r	knee_angle_r	knee_angle_r_beta	ankle_angle_r	subtalar_angle_r	mtp_angle_r	hip_flexion_l	hip_adduction_l	hip_rotation_l	knee_angle_l	knee_angle_l_beta	ankle_angle_l	subtalar_angle_l	mtp_angle_l	L5_S1_Flex_Ext	L5_S1_Lat_Bending	L5_S1_axial_rotation	L4_L5_Flex_Ext	L4_L5_Lat_Bending	L4_L5_axial_rotation	L3_L4_Flex_Ext	L3_L4_Lat_Bending	L3_L4_axial_rotation	L2_L3_Flex_Ext	L2_L3_Lat_Bending	L2_L3_axial_rotation	L1_L2_Flex_Ext	L1_L2_Lat_Bending	L1_L2_axial_rotation	L1_T12_Flex_Ext	L1_T12_Lat_Bending	L1_T12_axial_rotation	Abs_r3	Abs_r2	Abs_r1	Abs_t1	Abs_t2	neck_flexion	neck_bending	neck_rotation	arm_flex_r	arm_add_r	arm_rot_r	elbow_flex_r	pro_sup_r	wrist_flex_r	wrist_dev_r	arm_flex_l	arm_add_l	arm_rot_l	elbow_flex_l	pro_sup_l	wrist_flex_l	wrist_dev_l
      1.61016949	      0.74766777	     -7.47423302	     86.71271404	      0.31653722	      0.75774645	      0.61665761	      1.73993614	      2.34213110	      4.24622600	      5.99088071	      0.10456059	     19.41312649	     -1.01367771	      0.00000000	      0.50479089	     -5.46687181	     -1.48233896	      5.67581118	      0.09906159	     19.84022113	      3.15175104	      0.00000000	     -0.17762564	      0.29963497	      1.97571126	     -0.32986858	      0.39851451	      2.09919321	     -0.29182117	      0.72853247	      2.09919321	     -0.20300835	      0.72853247	      1.72874735	     -0.16494317	      0.61101563	      1.60526540	     -0.10149529	      0.46413457	      1.48178344	     -1.26876221	      3.38953071	     10.98831331	      0.00000000	      0.00000000	     24.17013406	     -2.58909834	    -10.49149469	     14.17745828	    -12.46409327	     74.36758246	     57.14357009	     28.15232322	      1.89396408	     -7.51644990	      9.60839170	    -13.87803033	     50.00049611	     60.72649986	     77.21725313	     17.27205115	     20.41539459
      1.62711864	      0.61972776	     -7.81628429	     87.25897910	      0.31581168	      0.75624333	      0.61605745	      2.79197269	      2.31230551	      4.42969510	      7.64676143	      0.13346116	     19.91680111	     -2.69857167	      0.00000000	      1.28873738	     -5.28850785	     -0.07115752	      6.42108145	      0.11206901	     20.13847464	      1.90028013	      0.00000000	     -0.15574332	      0.27417784	      1.80465742	     -0.28923093	      0.36465652	      1.91744851	     -0.25587071	      0.66663599	      1.91744851	     -0.17799904	      0.66663599	      1.57907524	     -0.14462325	      0.55910344	      1.46628415	     -0.08899173	      0.42470147	      1.35349306	     -1.11245898	      3.10155452	     10.03696317	      0.00000000	      0.00000000	     23.98767543	     -1.68245302	    -10.24691358	     13.09071987	    -11.92843868	     70.77575765	     57.05071760	     34.39918948	      0.91452405	     -6.25598216	      7.94484277	    -13.18689345	     44.98253946	     63.19958715	     85.79033053	     19.02682898	     25.35777979
      1.64406780	      0.46534035	     -7.97603556	     87.50631962	      0.31542178	      0.75507734	      0.61573084	      3.64002532	      2.21125626	      4.34110239	      9.22406862	      0.16099037	     20.22961170	     -3.56460813	      0.00000000	      1.87539526	     -5.11144028	      0.26391357	      7.24416888	      0.12643460	     20.48259044	      1.68687045	      0.00000000	     -0.15319336	      0.25102066	      1.70710811	     -0.28449538	      0.33385748	      1.81380237	     -0.25168136	      0.61033163	      1.81380237	     -0.17508469	      0.61033163	      1.49371960	     -0.14225535	      0.51188133	      1.38702534	     -0.08753468	      0.38883100	      1.28033108	     -1.09424482	      2.83959591	      9.49442317	      0.00000000	      0.00000000	     23.16924852	     -0.94047077	    -10.11508491	     12.91048889	    -11.65388377	     70.06622725	     56.87837233	     35.76802316	     -0.40691259	     -6.49476159	      7.93505570	    -13.08195147	     44.24186510	     64.14310666	     87.34002803	     18.78854171	     26.51524081
      1.66101695	      0.42888567	     -7.71138869	     87.58733270	      0.31528947	      0.75456990	      0.61471875	      3.79194148	      2.20490667	      4.14066992	     10.36742091	      0.18094563	     20.24026607	     -4.10011109	      0.00000000	      1.80265306	     -5.03792448	      0.27828439	      7.80914541	      0.13629530	     20.73933660	      1.49137696	      0.00000000	     -0.20133683	      0.24261717	      1.63061005	     -0.37390263	      0.32268083	      1.73252318	     -0.33077628	      0.58989938	      1.73252318	     -0.23010786	      0.58989938	      1.42678379	     -0.18696138	      0.49474493	      1.32487066	     -0.11504386	      0.37581399	      1.22295754	     -1.43812884	      2.74453392	      9.06896390	      0.00000000	      0.00000000	     21.82550634	     -0.35661879	    -10.15806862	     12.77210112	    -11.46425090	     69.79967960	     56.26697258	     36.35629788	     -1.06543751	     -6.47699181	      8.18871778	    -12.64313518	     43.80027985	     64.10411967	     87.71464008	     18.67565133	     26.85649122
      1.67796610	      0.24947535	     -7.56975032	     87.86193018	      0.31490930	      0.75386417	      0.61350625	      4.04270622	      2.05036361	      4.04021587	     11.46301629	      0.20006738	     20.52846076	     -4.72877274	      0.00000000	      1.91478087	     -4.80979371	      0.29022793	      8.41722617	      0.14690831	     21.05758141	      1.30356253	      0.00000000	     -0.22127619	      0.21610627	      1.53005137	     -0.41093201	      0.28742133	      1.62567958	     -0.36353465	      0.52544078	      1.62567958	     -0.25289656	      0.52544078	      1.33879495	     -0.20547707	      0.44068390	      1.24316674	     -0.12643722	      0.33474861	      1.14753853	     -1.58055371	      2.44463731	      8.50968672	      0.00000000	      0.00000000	     20.56658968	      0.33062742	    -10.24737113	     12.50887795	    -11.47838711	     69.52723335	     55.67431684	     36.79446667	     -1.69556985	     -6.44856742	      8.47338115	    -11.88747327	     43.28530220	     63.52881639	     87.94756615	     18.49248215	     27.06413819
      1.69491525	      0.01563314	     -7.75817609	     88.94260686	      0.31451669	      0.75261835	      0.61233790	      4.61321029	      2.15838134	      5.63804423	     12.55908521	      0.21919739	     19.93426930	     -9.75338987	      0.00000000	      2.78033737	     -4.53279796	      2.25177782	      9.58786842	      0.16733987	     21.12612239	      0.10721242	      0.00000000	     -0.18387259	      0.16652958	      1.26024665	     -0.34146979	      0.22148434	      1.33901206	     -0.30208428	      0.40490002	      1.33901206	     -0.21014798	      0.40490002	      1.10271582	     -0.17074409	      0.33958712	      1.02395040	     -0.10506480	      0.25795432	      0.94518499	     -1.31338353	      1.88381591	      7.00911378	      0.00000000	      0.00000000	     19.35471471	      1.38838282	    -10.23704212	     11.70767318	    -11.46087433	     67.92798825	     55.55613563	     38.12880824	     -3.65615498	     -5.62973582	      8.37280902	    -11.15094780	     41.73062624	     62.92438745	     87.89396495	     19.40268917	     27.28226862
      1.71186441	     -0.27610988	     -7.53005837	     89.16960275	      0.31490622	      0.75231234	      0.61104033	      4.73379379	      2.01824949	      6.04528404	     13.49687880	      0.23556497	     20.07935951	    -11.11867476	      0.00000000	      2.84304359	     -4.22101762	      2.57105632	     10.30352134	      0.17983037	     21.09086996	     -0.37824476	      0.00000000	     -0.19832955	      0.11544248	      1.23336480	     -0.36831780	      0.15353850	      1.31045010	     -0.32583562	      0.28068686	      1.31045010	     -0.22667084	      0.28068686	      1.07919420	     -0.18416882	      0.23541031	      1.00210890	     -0.11332550	      0.17882041	      0.92502360	     -1.41664813	      1.30590848	      6.85960500	      0.00000000	      0.00000000	     17.82336275	      1.77701768	    -10.92881091	     10.91662242	    -11.66271632	     66.13485489	     55.31042819	     32.53358951	     -3.22841843	     -5.34530146	      9.12264582	    -10.25786894	     41.75838377	     61.34821808	     87.54198793	     18.35045658	     26.17316820
      1.72881356	     -0.49694534	     -7.26617347	     89.40074839	      0.31531670	      0.75221919	      0.60983979	      4.77719898	      1.96187401	      6.53494649	     14.31277993	      0.24980513	     20.25901194	    -12.39420783	      0.00000000	      2.81750525	     -3.99064852	      2.91311070	     10.90416210	      0.19031353	     20.96198620	     -0.74574982	      0.00000000	     -0.21103699	      0.07711424	      1.18948145	     -0.39191679	      0.10256194	      1.26382404	     -0.34671266	      0.18749556	      1.26382404	     -0.24119417	      0.18749556	      1.04079627	     -0.19596895	      0.15725136	      0.96645368	     -0.12058653	      0.11944996	      0.89211109	     -1.50741609	      0.87233169	      6.61553900	      0.00000000	      0.00000000	     16.26210347	      1.91904059	    -11.25638904	     10.52584843	    -11.89627651	     65.02338396	     55.24785865	     24.94065513	     -3.82167267	     -6.08392482	      9.81519938	     -9.30777956	     41.58348132	     59.48730471	     86.73280345	     16.25126734	     24.96971167
      1.74576271	     -0.62994137	     -7.03028956	     89.83431866	      0.31554000	      0.75217779	      0.60890372	      4.79528672	      1.95886323	      6.68572159	     14.96635389	      0.26121215	     20.59498165	    -13.19164685	      0.00000000	      2.86752210	     -3.86202074	      3.33252654	     11.49067234	      0.20055007	     20.82196854	     -0.88213330	      0.00000000	     -0.22195270	      0.04990985	      1.11964757	     -0.41218835	      0.06638011	      1.18962554	     -0.36464608	      0.12135082	      1.18962554	     -0.25366974	      0.12135082	      0.97969163	     -0.20610527	      0.10177617	      0.90971365	     -0.12682377	      0.07731036	      0.83973568	     -1.58538591	      0.56459025	      6.22714390	      0.00000000	      0.00000000	     14.92652854	      2.09057289	    -11.45772985	     10.10339391	    -11.88837262	     62.96428885	     54.94212679	     20.48972885	     -4.62172017	     -6.63822537	     10.50287133	     -8.37810791	     41.21732726	     57.51799063	     85.73795082	     13.90710488	     24.05993487
      1.76271186	     -0.73285354	     -6.73842393	     90.12653414	      0.31587444	      0.75232990	      0.60818945	      4.69467752	      1.94956034	      6.90297847	     15.43093717	      0.26932066	     21.13518735	    -13.38651508	      0.00000000	      2.77636864	     -3.78054057	      3.45624108	     11.91771669	      0.20800340	     20.64610570	     -0.80729996	      0.00000000	     -0.24700036	      0.03013605	      1.04396948	     -0.45870436	      0.04008094	      1.10921758	     -0.40579689	      0.07327278	      1.10921758	     -0.28229671	      0.07327278	      0.91347330	     -0.22936453	      0.06145342	      0.84822520	     -0.14113600	      0.04668073	      0.78297711	     -1.76429885	      0.34090497	      5.80624507	      0.00000000	      0.00000000	     13.96812583	      2.31632655	    -11.35521308	     10.31110009	    -11.58563500	     61.40394769	     53.88511338	     19.71327807	     -5.05577469	     -7.02343001	     11.07882585	     -7.46430367	     40.06178264	     55.45185855	     85.34097124	     12.74262921	     23.87099254
